<svg width="1554" height="604" viewBox="0 0 1554 604" fill="none" xmlns="http://www.w3.org/2000/svg">
<path d="M1477.74 206.204C1471.16 206.204 1465.31 208.457 1460.8 212.779C1456.24 217.163 1453.86 223.129 1453.86 230.069V371.983C1453.86 378.619 1456.24 384.524 1460.68 388.969C1465.19 393.474 1471.04 395.848 1477.68 395.848C1484.56 395.848 1490.53 393.474 1494.98 388.908C1499.3 384.464 1501.55 378.619 1501.55 371.983V230.069C1501.55 223.129 1499.3 217.345 1494.85 212.901C1490.47 208.457 1484.68 206.204 1477.74 206.204Z" fill="white"/>
<path d="M1248.77 206.021C1242.19 206.021 1236.34 208.274 1231.83 212.597C1227.27 216.98 1224.89 222.946 1224.89 229.887V371.861C1224.89 378.497 1227.27 384.403 1231.71 388.847C1236.22 393.352 1242.07 395.727 1248.71 395.727C1255.59 395.727 1261.56 393.352 1266.01 388.786C1270.33 384.342 1272.58 378.497 1272.58 371.861V229.887C1272.58 222.946 1270.33 217.163 1265.88 212.718C1261.5 208.274 1255.71 206.021 1248.77 206.021Z" fill="white"/>
<path d="M793.203 349.457H728.757L808.248 244.072C811.172 240.176 812.634 235.244 812.634 229.339C812.634 215.214 804.167 206.752 790.035 206.752H682.525C668.393 206.752 659.926 215.214 659.926 229.339C659.926 243.463 668.393 251.926 682.525 251.926H747.275L667.479 357.311C664.556 361.207 663.094 366.138 663.094 372.044C663.094 386.168 671.561 394.631 685.692 394.631H793.203C807.335 394.631 815.801 386.168 815.801 372.044C815.801 357.919 807.335 349.457 793.203 349.457Z" fill="white"/>
<path d="M1419.75 349.701H1355.3L1434.79 244.316C1437.72 240.42 1439.18 235.488 1439.18 229.583C1439.18 215.459 1430.71 206.996 1416.58 206.996H1309.07C1294.94 206.996 1286.47 215.459 1286.47 229.583C1286.47 243.707 1294.94 252.17 1309.07 252.17H1373.82L1294.03 357.555C1291.1 361.451 1289.64 366.382 1289.64 372.288C1289.64 386.412 1298.11 394.875 1312.24 394.875H1419.75C1433.88 394.875 1442.35 386.412 1442.35 372.288C1442.35 358.164 1433.94 349.701 1419.75 349.701Z" fill="white"/>
<path d="M981.727 205.108C972.286 205.108 964.123 210.709 960.408 218.807C959.799 218.441 959.25 218.076 958.641 217.711C944.327 209.37 928.246 205.169 910.703 205.169C893.221 205.169 877.018 209.37 862.521 217.711C848.024 226.051 836.451 237.619 828.228 252.109C820.004 266.598 815.862 282.853 815.862 300.57C815.862 318.164 819.7 334.42 827.314 348.787C834.989 363.338 845.709 374.845 859.11 383.124C872.572 391.404 887.8 395.605 904.368 395.605C917.647 395.605 930.256 392.804 941.768 387.264C947.677 384.464 953.159 380.994 958.154 377.036C959.189 381.115 961.26 384.829 964.245 387.812C968.753 392.317 974.6 394.692 981.24 394.692C987.879 394.692 993.788 392.317 998.234 387.812C1002.74 383.307 1005.12 377.462 1005.12 370.826V333.263V300.57V228.608C1005.24 215.58 994.701 205.108 981.727 205.108ZM952.428 326.87C948.225 334.663 942.621 340.569 935.251 345.013C927.941 349.457 919.901 351.588 910.764 351.588C901.627 351.588 893.587 349.457 886.277 345.013C878.907 340.569 873.181 334.602 868.856 326.809C864.592 319.078 862.399 310.25 862.399 300.509C862.399 290.768 864.592 281.818 868.856 273.965C873.181 266.111 878.846 260.084 886.216 255.64C893.587 251.195 901.566 249.064 910.703 249.064C919.84 249.064 927.88 251.195 935.19 255.64C942.56 260.084 948.164 266.05 952.367 273.904C956.57 281.758 958.702 290.707 958.702 300.509C958.763 310.25 956.631 319.138 952.428 326.87Z" fill="white"/>
<path d="M1165.26 218.319C1150.76 209.978 1134.56 205.778 1117.07 205.778C1099.59 205.778 1083.45 209.978 1069.14 218.319C1068.53 218.684 1067.98 219.05 1067.37 219.415C1063.65 211.379 1055.49 205.717 1046.05 205.717C1033.08 205.717 1022.54 216.249 1022.54 229.217V301.117V333.81V439.621C1022.54 446.501 1024.91 452.467 1029.48 456.912C1033.93 461.234 1039.78 463.487 1046.42 463.487C1053.36 463.487 1059.15 461.234 1063.59 456.79C1068.04 452.346 1070.29 446.562 1070.29 439.621V378.253C1075.11 382.028 1080.34 385.255 1085.95 387.934C1097.46 393.474 1110.07 396.274 1123.35 396.274C1139.86 396.274 1155.08 392.073 1168.61 383.794C1182.07 375.514 1192.73 363.946 1200.4 349.457C1208.02 335.028 1211.85 318.834 1211.85 301.239C1211.85 283.584 1207.71 267.267 1199.49 252.778C1191.33 238.227 1179.81 226.66 1165.26 218.319ZM1158.98 327.479C1154.66 335.271 1148.99 341.238 1141.56 345.682C1134.25 350.126 1126.21 352.257 1117.07 352.257C1107.94 352.257 1099.9 350.126 1092.59 345.682C1085.22 341.238 1079.61 335.271 1075.41 327.54C1071.21 319.808 1069.08 310.919 1069.08 301.178C1069.08 291.376 1071.21 282.427 1075.41 274.573C1079.61 266.72 1085.22 260.753 1092.59 256.309C1099.96 251.865 1107.94 249.734 1117.07 249.734C1126.21 249.734 1134.25 251.865 1141.56 256.309C1148.93 260.753 1154.66 266.78 1158.92 274.634C1163.19 282.488 1165.38 291.376 1165.38 301.178C1165.44 310.919 1163.25 319.747 1158.98 327.479Z" fill="white"/>
<path d="M528.721 155.125C536.091 146.602 540.538 135.521 540.538 123.345C540.538 96.4358 518.609 74.5187 491.686 74.5187C479.503 74.5187 468.356 79.0239 459.829 86.3296C418.043 57.8373 367.546 41.2168 313.273 41.2168C169.398 41.2168 52.3848 158.23 52.3848 301.97C52.3848 445.771 169.459 562.723 313.273 562.723C457.148 562.723 574.161 445.71 574.161 301.97C574.161 247.542 557.41 196.95 528.721 155.125ZM491.686 92.0524C508.924 92.0524 522.995 106.116 522.995 123.345C522.995 129.677 521.107 135.521 517.878 140.453C514.65 145.384 510.02 149.341 504.599 151.838C500.64 153.603 496.254 154.638 491.686 154.638C474.448 154.638 460.377 140.575 460.377 123.345C460.377 118.779 461.351 114.457 463.118 110.499C465.554 105.02 469.575 100.454 474.509 97.2273C479.564 93.9397 485.412 92.0524 491.686 92.0524ZM313.273 545.25C179.083 545.25 69.8667 436.152 69.8667 301.97C69.8667 167.788 179.083 58.7505 313.273 58.7505C363.404 58.7505 410.002 73.9708 448.803 100.028C445.027 106.968 442.895 114.883 442.895 123.345C442.895 150.255 464.823 172.172 491.747 172.172C500.214 172.172 508.132 169.98 515.137 166.145C541.39 204.987 556.74 251.682 556.74 301.97C556.679 436.152 447.463 545.25 313.273 545.25Z" fill="white"/>
<path d="M391.241 335.941C385.454 335.941 379.424 337.098 373.394 339.594C367.302 342.151 358.592 348.97 347.384 360.111C323.872 383.429 300.42 406.929 277.091 430.672C276.299 431.464 276.482 431.89 277.639 431.951C313.334 432.316 341.354 432.499 361.698 432.499C375.769 432.499 386.124 432.438 392.886 432.255C410.977 431.768 424.377 423.671 433.088 407.903C451.362 374.662 424.987 335.941 391.241 335.941Z" fill="white"/>
<path d="M276.177 171.624C260.949 171.624 245.66 171.685 230.432 171.746C174.941 172.111 164.829 251.561 217.092 266.172C222.087 267.572 226.899 268.303 231.589 268.303C243.894 268.303 254.98 263.432 264.969 253.692C292.015 227.269 318.877 200.542 345.435 173.45C346.348 172.476 346.166 171.989 344.826 171.928C321.983 171.746 299.08 171.624 276.177 171.624Z" fill="white"/>
<path d="M396.053 171.562C384.236 171.562 372.358 176.068 363.343 185.078L196.687 351.709C178.657 369.73 178.657 399.014 196.687 417.095L197.966 418.374C206.981 427.384 218.859 431.89 230.676 431.89C242.493 431.89 254.371 427.384 263.386 418.374L430.103 251.743C448.133 233.722 448.133 204.438 430.103 186.357L428.824 185.078C419.748 176.068 407.931 171.562 396.053 171.562Z" fill="white"/>
</svg>
